<?xml version="1.0" encoding="UTF-8"?>
<!DOCTYPE svg PUBLIC "-//W3C//DTD SVG 1.1//EN" "http://www.w3.org/Graphics/SVG/1.1/DTD/svg11.dtd">
<!-- Creator: CorelDRAW X7 -->
<svg xmlns="http://www.w3.org/2000/svg" xml:space="preserve" width="64.3466mm" height="35.56mm" version="1.1" style="shape-rendering:geometricPrecision; text-rendering:geometricPrecision; image-rendering:optimizeQuality; fill-rule:evenodd; clip-rule:evenodd"
viewBox="0 0 6435 3556"
 xmlns:xlink="http://www.w3.org/1999/xlink">
 <defs>
  <style type="text/css">
   <![CDATA[
    .str0 {stroke:#FEFEFE;stroke-width:8.46}
    .str1 {stroke:white;stroke-width:8.46}
    .fil1 {fill:none}
    .fil0 {fill:#071136}
    .fil2 {fill:#FAFAFA}
    .fil4 {fill:white}
    .fil3 {fill:#2B2A29;fill-rule:nonzero}
    .fil5 {fill:white;fill-rule:nonzero}
   ]]>
  </style>
 </defs>
 <g id="Layer_x0020_1">
  <metadata id="CorelCorpID_0Corel-Layer"/>
  <rect class="fil0" width="6435" height="3556"/>
  <path class="fil1 str0" d="M428 1651c-4,-11 -8,-34 -13,-57 -5,-23 -11,-47 -10,-71 1,-24 8,-49 16,-65 8,-16 17,-22 31,-30 14,-7 33,-15 54,-19 20,-3 40,-2 58,1 17,3 31,6 45,9 13,3 26,6 36,6 10,0 18,-2 24,3 5,5 7,17 5,27 -1,10 -6,17 -13,20 -8,4 -17,4 -28,3 -11,-1 -24,-2 -32,-1 -8,0 -12,4 -13,10 -1,6 0,14 -3,23 -2,8 -8,17 -13,25 -6,9 -10,18 -14,27 -3,9 -5,18 -8,22 -2,5 -6,5 -8,0 -2,-5 -3,-15 -5,-23 -2,-9 -6,-15 -11,-20 -6,-4 -13,-7 -20,-6 -6,0 -12,4 -16,11 -4,8 -7,18 -8,26 -1,7 -2,12 0,20 2,8 6,20 6,29 0,9 -5,16 -11,22 -6,6 -15,11 -20,15 -5,5 -7,8 -10,8 -2,1 -5,-1 -8,-2 -4,-1 -7,-1 -11,-13z"/>
  <path class="fil1 str0" d="M656 1477c-1,16 -1,32 -2,44 0,11 0,18 1,26 2,7 4,15 7,22 3,8 7,15 10,21 4,7 7,14 8,18 1,5 1,8 -2,9 -3,1 -9,0 -13,0 -3,-1 -4,-1 -4,2 0,2 1,6 1,10 1,4 1,6 -1,9 -3,2 -7,4 -11,5 -3,2 -4,3 -3,5 1,2 5,4 7,7 2,2 3,4 1,7 -1,2 -3,5 -5,9 -1,4 -2,10 -1,16 0,5 0,11 -3,15 -4,3 -12,4 -21,3 -8,-1 -18,-4 -24,-5 -6,-2 -8,-2 -11,2 -4,3 -8,11 -11,18 -3,7 -5,13 -7,20"/>
  <path class="fil1 str0" d="M428 1667c8,-1 21,1 32,4 12,4 23,8 36,15 12,7 27,16 40,25 13,10 24,19 32,29 8,10 11,19 13,24 2,5 2,5 -7,-3 -10,-8 -28,-24 -46,-37 -19,-14 -37,-25 -52,-31 -16,-7 -27,-9 -36,-11 -10,-1 -16,-2 -19,-2 -4,-1 -5,-1 -4,-3 1,-3 3,-8 11,-10z"/>
  <path class="fil1 str0" d="M417 1677c-9,18 -17,37 -29,57 -11,20 -26,40 -37,60 -12,20 -20,39 -27,59 -7,20 -12,41 -15,71 -3,30 -3,69 -3,117 1,48 3,105 0,149 -2,45 -8,77 -17,116 -9,39 -20,85 -28,126 -9,40 -14,74 -19,105 -5,31 -10,58 -12,72 -3,13 -3,13 13,13 17,0 49,-1 90,2 40,3 89,9 134,16 45,8 87,16 122,23 35,7 64,11 84,14 19,3 28,4 35,2 7,-2 11,-7 12,-43 1,-36 -2,-102 -5,-172 -3,-69 -6,-142 -8,-199 -2,-57 -3,-99 -4,-119 -1,-21 -1,-21 8,-16 8,5 26,15 49,25 23,11 52,22 85,31 33,9 71,16 111,22 39,6 80,12 104,15 23,4 29,5 32,5 2,0 2,0 5,-8 2,-8 7,-24 11,-41 3,-17 4,-35 5,-49 0,-14 -2,-23 -2,-28 -1,-5 -1,-5 -20,-9 -19,-3 -57,-11 -103,-21 -46,-9 -99,-21 -128,-30 -28,-8 -32,-13 -36,-17 -4,-3 -7,-6 -12,-7 -4,0 -9,0 -15,-4 -7,-4 -15,-13 -36,-33 -21,-20 -56,-51 -73,-67 -17,-15 -17,-15 -18,-22 -1,-7 -3,-21 -9,-35 -5,-14 -14,-27 -25,-40 -11,-13 -25,-26 -34,-34 -10,-9 -15,-14 -21,-19"/>
  <path class="fil1 str0" d="M1102 2096c15,2 29,4 37,5 8,0 9,0 9,7 0,7 0,22 -1,39 -1,17 -3,36 -6,49 -3,12 -7,18 -11,23 -3,5 -6,8 -8,8 -3,1 -5,-1 -9,-3 -4,-1 -10,-3 -16,-4"/>
  <path class="fil1 str0" d="M1312 2200c5,-3 10,-6 15,-10 5,-5 10,-10 14,-13 4,-3 8,-4 10,-7 3,-3 4,-8 4,-15 0,-7 -1,-15 -4,-23 -3,-7 -8,-15 -11,-18 -2,-4 -2,-4 -4,-3 -2,0 -5,1 -9,2 -5,1 -10,3 -16,2 -5,0 -10,-2 -17,-5 -7,-3 -15,-7 -22,-9 -7,-2 -13,-3 -22,-1 -8,3 -20,8 -30,14 -10,5 -18,10 -23,14 -5,4 -8,6 -7,8 1,3 4,4 10,5 6,1 13,2 20,0 7,-2 13,-6 17,-9 5,-2 8,-3 13,-2 5,2 13,6 19,9 6,3 11,5 15,7 4,1 7,2 12,2 4,1 9,1 13,1"/>
  <path class="fil1 str0" d="M1148 2122c10,1 20,2 29,2 8,1 16,1 24,1"/>
  <path class="fil1 str0" d="M1141 2196c11,0 22,1 30,2 9,1 15,2 24,6 8,5 19,11 28,17 9,6 17,11 23,13 5,3 8,2 12,1"/>
  <path class="fil1 str0" d="M1239 2213c7,6 14,12 20,15 7,3 12,3 15,2 4,-1 6,-3 8,-4"/>
  <path class="fil1 str0" d="M1253 2204c9,7 18,15 25,19 6,3 10,2 13,0 3,-2 6,-5 10,-9"/>
  <path class="fil1 str0" d="M1269 2186c8,8 17,16 21,21 5,5 7,6 10,6 3,0 7,-1 9,-4 3,-2 3,-7 3,-11"/>
  <path class="fil1 str0" d="M1312 2200c-1,-5 -3,-11 -8,-17 -4,-7 -12,-16 -22,-24 -10,-8 -21,-15 -29,-20 -8,-4 -12,-5 -16,-7"/>
  <path class="fil1 str0" d="M1183 2200c0,4 0,8 1,11 1,3 3,4 6,5 3,0 6,0 8,-1 3,-1 4,-4 4,-4 0,0 -1,3 -2,5 0,2 1,5 2,7 1,2 3,3 5,3 3,0 5,-2 8,-4 3,-2 5,-5 6,-4 0,1 -1,7 -2,10 0,3 0,5 2,6 3,1 6,1 9,0 2,-1 3,-3 3,-5 1,-1 1,-1 1,-1 0,0 0,0 0,0"/>
  <path class="fil1 str0" d="M1246 2234c-3,3 -6,5 -9,5 -3,0 -5,-2 -7,-5"/>
  <path class="fil1 str0" d="M1233 2237c-1,-1 -2,-2 -3,-3"/>
  <path class="fil1 str0" d="M1252 2236c2,-1 4,-1 6,-2 3,-1 6,-2 9,-3"/>
  <path class="fil1 str0" d="M1338 2112c-1,-3 -3,-5 -2,-7 0,-2 3,-4 7,-5 4,0 10,1 15,6 6,5 11,13 15,21 3,9 3,17 4,26 0,10 0,19 -3,26 -2,6 -8,9 -12,11 -5,2 -8,3 -12,1 -3,-3 -6,-8 -9,-14"/>
  <path class="fil1 str0" d="M1343 2100c12,-5 25,-11 55,-18 29,-8 75,-17 111,-24 36,-7 63,-12 94,-24 31,-11 68,-31 97,-45 29,-15 51,-25 62,-31 11,-5 11,-6 12,-9 1,-3 1,-9 8,-18 8,-10 21,-24 40,-40 19,-15 44,-31 60,-41 16,-10 23,-13 27,-15 5,-2 6,-3 9,-4 2,-1 6,-2 8,-3 2,-1 2,-1 2,16 0,17 1,50 0,96 0,46 -3,105 -5,145 -1,39 -2,60 -5,76 -3,15 -7,25 -10,37 -2,12 -3,25 -1,39 2,13 6,27 9,34 2,7 2,7 5,3 3,-5 10,-14 13,-19 3,-4 3,-4 4,-23 1,-18 2,-55 3,-101 2,-46 4,-101 5,-144 0,-42 0,-73 1,-90 2,-18 5,-22 9,-27 5,-6 11,-12 14,-15 2,-2 2,-2 -2,-7 -5,-4 -14,-13 -20,-17 -7,-4 -10,-3 -13,-3 -3,0 -6,0 -9,0"/>
  <path class="fil1 str0" d="M1932 1877c3,1 7,3 10,3 3,0 6,-1 9,-2"/>
  <path class="fil1 str0" d="M1948 1831c2,-6 4,-13 12,-23 8,-10 22,-24 38,-40 16,-17 34,-35 44,-46 11,-12 15,-17 17,-19 1,-3 1,-3 3,-1 2,3 7,8 7,12 0,5 -4,9 -12,19 -8,10 -19,27 -30,45 -11,19 -21,40 -28,56 -7,16 -10,26 -12,32 -2,5 -2,5 -4,2 -2,-3 -7,-10 -12,-16"/>
  <path class="fil1 str0" d="M1946 1977c6,-19 13,-38 19,-56 7,-18 14,-35 21,-51"/>
  <path class="fil1 str0" d="M1356 2192c91,-8 183,-15 234,-20 51,-5 61,-7 87,-16 27,-9 69,-24 90,-32 21,-7 21,-7 20,22 -2,29 -4,86 -8,176 -4,91 -9,214 -11,276 -1,63 2,65 8,66 7,1 17,1 43,-7 25,-8 65,-23 84,-31 20,-7 20,-7 21,8 1,15 2,46 6,82 4,37 11,79 17,117 7,38 13,71 18,104"/>
  <path class="fil1 str0" d="M1882 1850c8,5 16,11 20,13 4,3 4,3 0,8 -3,5 -10,15 -15,28 -5,14 -7,30 -7,51 1,21 4,46 8,71 4,25 8,50 14,72 5,22 11,42 17,62"/>
  <path class="fil1 str0" d="M1908 2198c-13,33 -26,65 -39,101 -13,36 -26,76 -39,113 -13,38 -26,75 -36,104 -10,29 -18,51 -25,73"/>
  <path class="fil1 str0" d="M1934 2255c-2,55 -4,110 -5,147 -1,37 0,57 5,80 4,22 12,47 29,82 16,34 41,79 67,107 25,28 52,39 80,44 28,5 57,3 89,-3 32,-6 66,-17 83,-22 18,-5 18,-5 17,-20 0,-15 -1,-44 -2,-73"/>
  <path class="fil1 str0" d="M1941 2153c48,-83 97,-167 127,-218 30,-51 42,-71 47,-80 6,-10 6,-10 1,-14 -4,-4 -14,-11 -18,-15 -5,-4 -5,-4 2,-11 6,-7 19,-20 25,-26 7,-7 7,-7 -4,-18 -10,-11 -31,-34 -52,-57"/>
  <path class="fil1 str0" d="M2106 1754c34,5 67,9 90,14 23,5 36,11 49,27 14,15 28,40 43,89 15,49 29,122 39,179 10,57 15,99 14,165 0,67 -7,158 -11,223 -5,66 -8,105 -9,124 -2,20 -2,20 -5,20 -4,1 -12,1 -19,2"/>
  <path class="fil1 str0" d="M2245 1795c-10,0 -21,0 -31,3 -10,3 -19,9 -28,18 -9,9 -18,22 -25,40 -7,19 -13,44 -13,70 -1,26 4,53 10,85 5,33 12,70 22,110 9,40 21,82 27,113 6,30 6,48 2,100 -4,52 -12,138 -16,181 -4,42 -4,42 1,42 6,-1 17,-2 28,-2 12,1 24,3 35,6 10,3 20,7 26,11 6,3 10,6 14,9"/>
  <path class="fil1 str0" d="M1872 1446c-5,4 -9,14 -9,22 -1,8 4,15 11,18 7,3 17,3 26,3 10,-1 19,-1 26,-1 7,1 11,3 13,7 2,4 2,10 0,16 -2,7 -6,15 -9,22 -3,7 -5,13 -3,22 2,9 7,20 11,30 5,10 9,19 12,27 2,9 3,17 3,25 0,7 0,12 1,14 2,2 7,1 9,-5 2,-5 3,-16 7,-25 5,-9 13,-18 19,-22 7,-5 12,-5 18,-5 7,-1 14,-1 19,2 5,2 8,8 7,19 0,10 -3,24 -4,35 -2,10 -2,16 1,22 3,6 9,13 14,18 5,5 10,9 14,5 4,-3 7,-14 12,-33 5,-19 12,-46 16,-68 4,-22 5,-39 2,-56 -2,-17 -8,-32 -16,-45 -7,-12 -16,-20 -24,-26 -8,-6 -14,-9 -27,-12 -12,-2 -30,-3 -50,-3 -20,-1 -42,-2 -57,-3 -15,-1 -22,-2 -28,-4 -5,-2 -10,-4 -14,1z"/>
  <path class="fil1 str0" d="M1874 1486c-10,14 -20,29 -26,41 -6,12 -8,21 -8,30 -1,8 0,14 -1,22 -1,7 -4,15 -7,23 -3,8 -7,16 -10,23 -3,7 -6,13 -6,17 -1,4 1,6 4,7 4,0 9,0 11,1 3,1 4,5 4,9 0,4 0,8 1,10 1,3 3,5 4,6 1,2 1,2 0,5 -1,2 -3,5 -3,9 0,3 2,7 4,11 1,4 2,9 2,14 -1,5 -2,10 0,14 1,3 4,6 13,7 8,1 22,1 31,1 9,-1 14,-2 19,5 4,6 9,18 12,31 3,13 5,25 6,33 0,7 0,10 2,13 2,3 5,7 9,10"/>
  <path class="fil1 str0" d="M1924 1812c-5,7 -10,15 -15,23"/>
  <path class="fil1 str0" d="M1897 1735c15,-2 29,-5 39,-8 9,-2 14,-3 18,-5"/>
  <path class="fil1 str0" d="M2194 2557c-1,6 -2,13 -2,17 -1,4 0,5 7,6 7,0 21,0 36,2 15,2 30,7 40,10 10,4 16,7 19,5 3,-2 3,-9 3,-12 0,-4 0,-4 0,-4"/>
  <path class="fil1 str0" d="M2193 2579c-3,6 -6,12 -8,18 -1,7 0,14 0,22 -1,8 -2,17 -4,23 -2,7 -4,10 -4,15 -1,4 0,8 1,12 1,4 3,7 7,9 4,1 11,1 16,0 4,-1 7,-2 10,0 3,1 6,5 11,6 4,1 9,-2 12,-4 2,-3 2,-5 4,-6 2,0 6,2 11,3 4,0 8,-2 11,-3 2,-2 2,-5 5,-5 2,0 7,3 12,0 4,-3 8,-12 10,-21 2,-9 1,-19 0,-27 0,-9 -1,-17 -3,-25"/>
  <path class="fil1 str0" d="M2201 2678c4,-4 8,-9 11,-16 3,-6 5,-14 6,-21 1,-8 2,-15 3,-21"/>
  <path class="fil1 str0" d="M2238 2674c4,-7 8,-15 10,-23 2,-7 2,-15 2,-23"/>
  <path class="fil1 str0" d="M2265 2669c1,-5 3,-11 4,-17 1,-6 1,-13 1,-21"/>
  <path class="fil1 str0" d="M2263 2696c-1,80 -1,161 -1,241"/>
  <path class="fil1 str0" d="M252 2622c1,61 2,122 4,174 1,52 4,95 7,138"/>
  <path class="fil1 str0" d="M611 2667c-17,89 -35,178 -52,267"/>
  <path class="fil1 str0" d="M704 2127c-29,-16 -57,-32 -88,-49 -30,-18 -61,-37 -85,-53 -24,-16 -41,-29 -53,-45 -13,-15 -22,-34 -28,-56 -5,-22 -8,-48 -6,-73 2,-24 8,-46 13,-60 5,-13 8,-18 12,-23"/>
  <path class="fil1 str0" d="M652 2323c-22,-8 -44,-16 -63,-23 -18,-6 -34,-11 -42,-13 -8,-2 -9,-2 -9,5 0,7 -1,21 0,32 1,11 2,19 6,24 4,5 10,7 21,10 11,4 27,9 45,14 19,6 40,12 60,17"/>
  <path class="fil1 str0" d="M2078 2425c2,11 3,22 4,30 2,8 4,11 7,14 4,3 9,4 22,4 12,-1 31,-3 45,-4 14,-2 22,-3 31,-4"/>
  <path class="fil1 str0" d="M1901 2215c8,137 15,274 22,411"/>
  <path class="fil1 str0" d="M1918 2532c12,4 24,9 36,14"/>
  <path class="fil1 str0" d="M1920 2564c17,5 33,9 50,14"/>
  <path class="fil1 str0" d="M1141 2196c11,0 22,1 30,2 9,1 15,2 24,6 8,5 19,11 28,17 9,6 17,11 23,13 5,3 8,2 12,1"/>
  <path class="fil1 str0" d="M1239 2213c7,6 14,12 20,15 7,3 12,3 15,2 4,-1 6,-3 8,-4"/>
  <path class="fil1 str0" d="M1253 2204c9,7 18,15 25,19 6,3 10,2 13,0 3,-2 6,-5 10,-9"/>
  <path class="fil1 str0" d="M1269 2186c8,8 17,16 21,21 5,5 7,6 10,6 3,0 7,-1 9,-4 3,-2 3,-7 3,-11"/>
  <path class="fil1 str0" d="M1183 2200c0,4 0,8 1,11 1,3 3,4 6,5 3,0 6,0 8,-1 3,-1 4,-4 4,-4 0,0 -1,3 -2,5 0,2 1,5 2,7 1,2 3,3 5,3 3,0 5,-2 8,-4 3,-2 5,-5 6,-4 0,1 -1,7 -2,10 0,3 0,5 2,6 3,1 6,1 9,0 2,-1 3,-3 3,-5 1,-1 1,-1 1,-1 0,0 0,0 0,0"/>
  <path class="fil1 str0" d="M1246 2234c-3,3 -6,5 -9,5 -3,0 -5,-2 -7,-5"/>
  <path class="fil1 str0" d="M1233 2237c-1,-1 -2,-2 -3,-3"/>
  <path class="fil1 str0" d="M1252 2236c2,-1 4,-1 6,-2 3,-1 6,-2 9,-3"/>
  <path class="fil1 str0" d="M1203 1609l-3 16c9,18 46,72 48,78 3,7 -3,15 -6,22 -5,11 -3,13 1,24 11,27 0,23 -2,47 -2,9 9,94 11,118l3 17c4,-19 25,-125 24,-135 -5,-26 -15,-18 -3,-44 14,-32 1,-19 -2,-43 -1,-11 35,-59 41,-73 1,-3 1,-11 4,-16 22,-38 19,-52 31,-98 2,-8 4,-18 8,-24 30,-45 13,-54 22,-67l4 -3c0,0 1,0 1,-1 -17,-17 -26,-59 -38,-66 -4,-3 -69,-26 -80,-23l-34 17c-6,5 -7,4 -6,14 -11,-5 -14,-1 -21,7 -7,8 -26,24 -30,36 -5,15 6,52 2,62 -9,21 -5,22 3,45 1,2 4,10 5,12l10 4c1,0 1,0 2,1 -2,17 -5,20 2,35 8,17 0,22 3,38z"/>
  <path class="fil1 str0" d="M1241 1796c2,-24 13,-20 2,-47 -4,-11 -6,-13 -1,-24 3,-7 9,-15 6,-22 -2,-6 -39,-60 -48,-78l-14 2c3,37 39,91 48,146l7 23z"/>
  <path class="fil1 str0" d="M1279 1796c7,-7 9,-27 12,-38 10,-34 30,-85 31,-120l-7 -2c-6,14 -42,62 -41,73 3,24 16,11 2,43 -12,26 -2,18 3,44z"/>
  <path class="fil2 str0" d="M1213 1976c1,17 -7,42 -10,60 1,8 -2,4 5,5l16 -69c-9,-1 -7,-1 -11,4z"/>
  <path class="fil1 str0" d="M1248 1703c3,4 5,8 7,10 2,2 4,3 7,1 4,-2 9,-6 13,-10"/>
  <path class="fil1 str0" d="M1245 1752c3,6 7,11 11,12 5,2 11,-1 16,-3"/>
  <path class="fil1 str0" d="M1273 1959c1,-2 3,-4 7,-11 4,-8 11,-21 21,-39 9,-18 22,-41 33,-60 12,-19 22,-36 31,-49 9,-14 17,-24 21,-29 4,-5 4,-5 2,-10 -2,-5 -7,-14 -9,-18 -3,-5 -3,-5 2,-7 4,-3 12,-7 16,-9 4,-3 4,-3 1,-8 -2,-5 -8,-15 -13,-25 -5,-10 -9,-18 -18,-28 -8,-11 -22,-22 -31,-30 -8,-8 -13,-12 -15,-13 -2,-1 -3,0 -4,2 0,3 -1,7 -1,9 -1,2 -1,2 0,2 0,0 1,0 3,1 1,2 2,4 2,7 0,3 0,7 -2,15 -1,7 -3,17 -7,29 -3,12 -7,25 -11,39 -4,14 -9,29 -13,47 -5,17 -9,37 -15,64 -5,27 -11,60 -15,77 -3,16 -3,16 -3,13 -1,-4 -2,-10 -4,-26 -2,-16 -5,-41 -7,-60 -1,-20 -2,-33 -3,-41 -1,-8 -2,-11 -3,-17 -2,-6 -4,-16 -7,-26 -3,-10 -6,-21 -12,-35 -5,-13 -12,-31 -17,-45 -6,-14 -10,-26 -12,-34 -2,-8 -2,-13 0,-15 2,-3 6,-3 8,-4 2,0 2,0 3,-3 0,-2 1,-8 1,-9 0,-2 -2,1 -5,2 -3,2 -7,3 -13,4 -6,1 -13,2 -16,3 -4,1 -4,1 -13,17 -9,16 -26,48 -35,64 -9,16 -9,16 -6,17 3,1 10,4 13,6 4,1 4,1 1,5 -2,4 -6,12 -9,16 -2,4 -2,4 2,9 4,5 12,15 21,28 9,14 19,30 28,45 8,16 16,31 24,51 8,20 16,44 21,60 6,15 7,21 9,27"/>
  <path class="fil1 str0" d="M1224 1972c1,-3 2,-7 3,-10 1,-2 3,-4 5,-5 2,-1 4,-2 9,-1 5,1 13,3 34,8 21,4 55,11 83,15 28,4 50,6 72,8"/>
  <polygon class="fil3 str0" points="1325,2114 1325,2113 1327,2114 "/>
  <path class="fil1 str0" d="M1224 1972c-2,0 -4,0 -6,0 -2,1 -4,2 -4,4 -1,2 -1,4 -2,9 0,5 -2,13 -3,21 -1,8 -3,15 -4,20 -1,5 -2,8 -2,10 0,2 0,3 1,4 1,1 2,1 4,1"/>
  <path class="fil1 str0" d="M1357 1979c5,-9 9,-18 14,-25 5,-8 10,-14 15,-20 5,-5 10,-10 16,-15 6,-5 12,-10 19,-13 6,-4 12,-7 16,-9 4,-2 8,-3 10,-4 2,0 4,0 5,0 2,1 3,2 2,3 0,2 -1,3 -3,6 -3,2 -7,5 -11,8 -3,3 -7,6 -10,8 -2,2 -4,3 -7,5 -3,3 -6,6 -2,4 4,-1 15,-7 25,-12 10,-5 19,-9 24,-11 6,-2 8,-2 10,-1 1,1 2,3 1,6 -1,2 -3,5 -10,10 -8,5 -21,12 -34,18"/>
  <path class="fil1 str0" d="M1459 1926c5,-3 10,-6 13,-7 3,-1 4,0 6,1 1,1 2,3 3,6 0,2 -1,5 -7,9 -6,3 -16,9 -27,14"/>
  <path class="fil1 str0" d="M1452 1946c5,-2 10,-5 14,-6 4,-1 6,0 7,1 2,1 2,3 3,4 0,2 0,3 0,5"/>
  <path class="fil1 str0" d="M1110 2025c-5,-3 -11,-5 -14,-8 -3,-2 -5,-4 -5,-6 1,-2 2,-5 3,-9 2,-3 4,-8 5,-11 2,-3 3,-6 6,-10 4,-4 10,-9 16,-13 7,-3 13,-4 17,-5 4,-1 6,-1 12,0 5,2 14,4 22,6 8,1 15,2 22,3 7,1 13,3 20,4"/>
  <path class="fil1 str0" d="M1054 1771c6,12 11,24 17,41 7,17 14,40 19,61 5,20 8,39 10,53 1,13 2,22 2,31 0,9 0,19 0,29"/>
  <path class="fil1 str0" d="M1093 2015c6,3 11,6 17,9 7,3 13,5 21,7 8,3 18,6 28,8 9,3 18,5 26,5 7,1 13,-1 16,-2 3,-1 4,-1 5,-1"/>
  <path class="fil1 str0" d="M1415 1907c1,-12 1,-23 2,-34 2,-11 3,-20 5,-29 2,-8 5,-16 9,-25 3,-10 8,-22 12,-30 4,-9 7,-14 10,-20 2,-6 5,-11 8,-17"/>
  <path class="fil1 str0" d="M1476 1950c-3,3 -7,7 -12,11 -4,4 -9,8 -14,12 -4,3 -7,6 -11,8 -3,3 -6,5 -9,5 -3,1 -7,1 -11,1"/>
  <path class="fil1 str0" d="M1224 1972c-4,15 -7,30 -10,41 -2,12 -4,20 -5,27 -1,6 -1,11 -1,16"/>
  <path class="fil1 str0" d="M1075 2225c-6,46 -12,91 -16,124 -4,32 -7,52 -9,69 -2,17 -3,30 -4,37 0,6 0,6 13,12 12,5 38,16 63,24 26,9 51,15 64,18 12,3 12,3 19,-32 6,-34 20,-104 28,-148 8,-44 11,-63 13,-72 2,-10 2,-10 2,-10"/>
  <path class="fil1 str0" d="M1439 2185c14,88 28,176 35,220 7,44 7,44 -7,50 -13,6 -41,18 -69,29 -27,10 -55,20 -72,24 -17,4 -22,3 -26,-2 -4,-4 -5,-12 -12,-53 -7,-42 -18,-117 -30,-193"/>
  <path class="fil1 str0" d="M1069 2473c4,133 8,266 9,343 2,77 1,98 1,119"/>
  <path class="fil1 str0" d="M1294 2936c0,-18 1,-35 -4,-101 -6,-66 -18,-181 -23,-239 -6,-58 -6,-58 -10,0 -4,58 -11,174 -14,240 -4,67 -3,83 -3,99"/>
  <path class="fil1 str0" d="M1444 2469c3,132 7,264 9,342 1,78 1,101 1,125"/>
  <path class="fil1 str0" d="M1378 1676c36,10 72,21 95,27 22,6 30,7 37,13 7,5 12,14 17,45 5,31 9,84 11,135 2,52 2,102 1,152"/>
  <path class="fil1 str0" d="M1208 2056c19,7 38,13 60,20 23,8 49,16 75,24"/>
  <path class="fil1 str0" d="M1132 1681c-21,3 -43,7 -63,11 -21,5 -42,10 -54,15 -13,5 -18,10 -22,16 -4,7 -7,16 -10,39 -3,23 -6,61 -8,102 -1,42 -1,88 0,122 1,35 2,58 4,82"/>
  <path class="fil1 str0" d="M559 2934c173,0 346,1 520,1"/>
  <path class="fil1 str0" d="M1240 2935c18,0 36,1 54,1"/>
  <path class="fil1 str0" d="M1454 2936c170,0 341,1 511,1"/>
  <g id="_2256355534688">
   <path class="fil1 str0" d="M3990 1495c2,-6 7,-14 12,-20 6,-5 12,-9 20,-14 7,-4 16,-10 29,-14 13,-4 30,-8 46,-8 15,0 28,4 39,6 11,2 19,3 27,1 8,-1 15,-4 25,-2 9,2 20,8 28,15 8,8 12,16 13,30 1,15 0,36 -3,59 -3,23 -6,47 -10,66 -4,19 -8,32 -12,41 -4,8 -7,12 -11,8 -4,-4 -9,-15 -13,-23 -3,-7 -4,-11 -2,-14 1,-2 7,-4 11,-8 3,-4 6,-10 5,-17 0,-7 -2,-16 -6,-20 -4,-4 -8,-4 -12,-1 -3,2 -6,7 -8,13 -1,5 -2,11 -2,14 0,2 -1,2 -3,2 -1,0 -5,0 -6,-5 -2,-6 -1,-17 -1,-24 -1,-8 -2,-11 -5,-16 -2,-5 -5,-11 -8,-15 -2,-4 -3,-7 -4,-10 0,-3 0,-8 -7,-10 -7,-3 -21,-3 -35,-4 -14,-1 -29,-2 -41,-2 -13,0 -22,0 -30,1 -7,2 -12,5 -18,3 -6,-2 -12,-8 -15,-14 -4,-6 -4,-11 -3,-18z"/>
   <path class="fil1 str0" d="M4031 1523c1,17 1,33 3,51 2,19 5,39 7,57 1,18 2,33 4,46 2,13 5,24 9,33 3,9 7,16 12,21 6,4 12,6 20,7 8,1 16,0 25,-1 8,-1 16,-3 26,-9 10,-6 23,-16 31,-22 8,-6 11,-9 13,-14 2,-6 2,-14 3,-22"/>
   <path class="fil1 str0" d="M4193 1663c0,28 1,55 1,83"/>
   <path class="fil1 str0" d="M4080 1737c0,8 1,15 1,19 0,3 0,3 3,8 2,5 7,14 12,20 4,7 9,12 13,15 4,3 7,5 13,4 6,0 15,-4 23,-8 8,-4 16,-9 23,-15 7,-5 13,-11 18,-17 4,-6 6,-11 7,-14 1,-3 1,-3 4,0 3,3 8,8 10,15 2,6 1,13 -2,22 -3,9 -9,20 -17,30 -7,10 -16,18 -22,24 -5,5 -7,6 -12,1 -5,-5 -14,-16 -19,-22 -5,-6 -7,-8 -9,-9 -3,-2 -7,-5 -10,-4 -3,0 -5,4 -9,9 -3,6 -9,13 -13,18 -3,5 -6,8 -9,4 -3,-4 -7,-14 -11,-24 -3,-10 -5,-20 -7,-28 -1,-7 -2,-13 -2,-16 0,-3 0,-5 2,-7 3,-2 9,-4 14,-6"/>
   <path class="fil1 str0" d="M4103 1822c3,3 5,6 7,8 1,2 2,3 2,21 0,18 -1,52 -1,94 -1,41 -1,89 -1,114 -1,24 -1,24 -1,24 0,0 0,0 5,0 5,1 15,1 20,2 6,0 6,0 3,-42 -3,-43 -8,-128 -11,-170 -2,-43 -2,-43 0,-44 2,-2 7,-5 11,-8"/>
   <path class="fil1 str0" d="M4110 1830c3,0 6,1 9,2 2,0 4,0 5,0"/>
   <path class="fil1 str0" d="M4207 1764c21,5 43,10 61,14 18,5 33,9 41,11 8,2 8,2 5,3 -2,1 -6,4 -12,10 -5,5 -12,15 -22,36 -10,22 -24,56 -41,98 -17,42 -37,92 -47,120 -11,27 -12,32 -12,35 0,3 0,3 -7,1 -8,-1 -22,-5 -42,-7 -21,-3 -48,-5 -83,-9 -35,-4 -78,-9 -110,-13 -33,-4 -56,-7 -69,-7 -14,-1 -18,1 -21,5 -3,4 -5,10 -6,18 -1,9 -2,19 -1,25 0,7 0,11 1,12 0,2 0,2 39,8 38,6 116,17 175,28 60,10 101,20 126,26 25,5 34,5 43,0 8,-5 16,-16 27,-34 10,-18 22,-44 41,-82 19,-38 43,-88 58,-122 15,-34 19,-50 20,-67 1,-16 -2,-31 -6,-43 -4,-12 -9,-21 -18,-27 -9,-6 -21,-8 -33,-11"/>
   <path class="fil1 str0" d="M4038 2075c-7,-26 -13,-52 -19,-78 -6,-26 -11,-52 -13,-77 -2,-26 -2,-51 -1,-74 0,-23 2,-42 3,-52 0,-10 0,-10 10,-13 9,-3 28,-10 47,-16"/>
   <path class="fil1 str0" d="M4050 2162c-4,44 -7,88 -9,110 -2,23 -2,23 -2,23 0,0 0,0 22,3 22,3 65,10 107,14 42,4 83,5 103,5 21,0 21,0 20,-20 -1,-20 -4,-61 -6,-99 -2,-38 -4,-72 -6,-107"/>
   <path class="fil1 str0" d="M4009 1785c-17,47 -34,93 -50,139 -15,46 -30,91 -44,136"/>
   <path class="fil1 str0" d="M4026 2026c-6,15 -12,30 -18,46"/>
   <path class="fil1 str0" d="M3841 2104c-13,4 -26,7 -39,10"/>
   <path class="fil1 str0" d="M3786 2075c14,-5 28,-10 39,-12 10,-3 17,-2 23,-2"/>
   <path class="fil1 str0" d="M3912 2159c23,-7 46,-13 69,-20"/>
   <path class="fil1 str0" d="M4039 2295c-28,3 -55,6 -90,9 -34,4 -75,9 -117,13"/>
   <path class="fil1 str0" d="M3771 2325c-39,4 -77,8 -109,12 -31,4 -56,8 -73,14 -17,6 -27,14 -35,33 -8,19 -15,49 -28,119 -12,70 -29,179 -41,249 -11,71 -16,104 -19,120 -3,17 -3,17 9,19 11,2 35,6 46,8 12,2 12,2 22,-61 10,-63 30,-190 45,-274 14,-85 23,-129 31,-155 8,-27 16,-36 41,-45 26,-9 69,-17 112,-25"/>
   <path class="fil1 str0" d="M3832 2330c32,-5 63,-9 94,-14"/>
   <path class="fil1 str0" d="M4289 2315c-2,29 -4,59 -8,81 -4,22 -10,36 -19,45 -10,9 -23,13 -53,15 -30,1 -77,0 -143,0 -66,0 -150,1 -235,2"/>
   <path class="fil1 str0" d="M3768 2461c-12,0 -25,0 -31,1 -7,0 -7,0 -19,76 -12,76 -36,228 -48,304 -12,75 -12,75 -34,72 -21,-3 -63,-10 -105,-17"/>
   <path class="fil1 str0" d="M3772 2240c0,231 0,463 0,695"/>
   <path class="fil1 str0" d="M3830 2233c1,235 2,469 2,587 0,117 0,117 -10,116 -10,0 -30,-1 -50,-1"/>
   <path class="fil1 str0" d="M3860 2529c1,136 1,272 2,340 0,68 0,68 10,68 10,0 30,1 40,1 10,0 10,0 10,-68 0,-68 0,-204 0,-340"/>
   <path class="fil1 str0" d="M4286 2529c0,135 0,271 0,339 0,68 0,68 0,68 0,0 0,0 10,0 11,0 31,1 42,2 10,0 10,0 9,-68 0,-68 -1,-205 -1,-341"/>
   <path class="fil1 str0" d="M3836 2510c5,9 14,14 34,17 20,2 51,3 134,2 84,0 220,-1 289,-1 68,-1 69,-1 69,-82 0,-81 0,-242 -1,-324 -1,-82 -3,-85 -7,-89 -4,-4 -10,-9 -16,-13 -7,-4 -14,-6 -19,-4 -4,2 -7,7 -13,20 -7,13 -17,34 -22,45 -5,10 -5,10 -5,10 0,0 0,0 2,36 2,36 6,107 8,146 1,38 0,44 -1,54 -1,11 -2,27 -4,50 -2,23 -4,53 -5,67 -1,15 -1,15 -72,15 -71,0 -214,-1 -287,1 -74,1 -78,5 -81,7 -3,3 -6,4 -7,12 -1,8 -1,21 4,31z"/>
   <path class="fil1 str0" d="M3925 2176c3,5 7,11 7,19 1,7 -2,16 -7,24 -5,7 -12,13 -16,17 -3,3 -3,3 -163,3 -160,0 -480,0 -646,-1 -166,-1 -177,-2 -186,-7 -9,-5 -17,-14 -20,-23 -4,-9 -4,-18 1,-27 4,-9 12,-17 17,-21 4,-4 4,-4 170,-3 166,0 498,1 664,1 166,1 166,1 168,3 3,3 7,9 11,15z"/>
   <path class="fil1 str0" d="M3007 2237c1,234 2,469 3,586 1,117 1,117 11,117 10,1 31,1 41,1 10,0 10,0 10,-117 -1,-117 -2,-352 -3,-586"/>
   <path class="fil1 str0" d="M3263 2238c0,234 0,467 0,583 0,117 0,117 11,117 10,0 31,0 42,0 10,0 10,0 10,-117 0,-116 -1,-349 -1,-583"/>
   <path class="fil1 str0" d="M3515 2239c1,104 2,208 3,312"/>
   <path class="fil1 str0" d="M3574 2239c1,39 2,78 3,118"/>
   <path class="fil1 str0" d="M3469 2125c5,0 11,0 67,0 56,0 163,1 216,1 53,1 53,1 39,-38 -13,-39 -41,-117 -55,-156 -13,-39 -13,-39 -13,-39 0,0 0,0 -55,0 -55,0 -166,0 -224,1 -59,0 -67,0 -71,0 -3,1 -3,1 9,36 13,36 38,107 52,145 13,37 14,40 15,43 1,3 2,5 4,6 1,1 3,1 6,1 3,0 6,0 10,0z"/>
   <path class="fil1 str0" d="M3453 2124c-1,11 -2,22 -2,34"/>
   <path class="fil1 str0" d="M3792 2124c27,0 53,-1 80,-1"/>
   <path class="fil1 str0" d="M3913 2129c1,11 1,22 1,32"/>
   <path class="fil1 str0" d="M3475 2891c-25,9 -49,19 -66,25 -17,7 -26,10 -32,13 -6,2 -9,4 -11,6 -1,2 -1,4 2,5 3,2 10,3 25,3 16,1 40,0 52,0 12,0 12,0 13,-2 1,-2 3,-7 9,-10 6,-3 15,-6 26,-10 11,-3 22,-7 31,-11 8,-4 12,-8 17,-11"/>
   <path class="fil1 str0" d="M3458 2941c0,2 0,5 12,5 11,1 36,0 67,-2 31,-1 70,-3 89,-4 20,-1 20,-2 20,-4 0,-3 0,-6 0,-9 0,-4 0,-8 0,-12"/>
   <path class="fil1 str0" d="M4105 2161c7,8 13,15 16,19 4,4 4,4 6,1 3,-2 8,-7 13,-13"/>
  </g>
  <line class="fil1 str0" x1="2262" y1="2937" x2="3034" y2= "2938" />
  <line class="fil1 str0" x1="4295" y1="2941" x2="4961" y2= "2942" />
  <ellipse class="fil1 str1" cx="5327" cy="1536" rx="125" ry="132"/>
  <line class="fil1 str1" x1="5295" y1="1664" x2="4965" y2= "2940" />
  <line class="fil1 str1" x1="5364" y1="1662" x2="5683" y2= "2938" />
  <line class="fil1 str1" x1="4965" y1="2940" x2="5575" y2= "2503" />
  <line class="fil1 str1" x1="5683" y1="2938" x2="5087" y2= "2511" />
  <line class="fil1 str1" x1="5076" y1="2510" x2="5513" y2= "2257" />
  <polyline class="fil1 str1" points="5575,2503 5142,2256 5462,2056 "/>
  <polyline class="fil1 str1" points="5513,2257 5193,2058 5415,1866 "/>
  <polyline class="fil1 str1" points="5462,2056 5243,1865 5394,1783 "/>
  <line class="fil1 str1" x1="5415" y1="1866" x2="5266" y2= "1773" />
  <path class="fil1 str1" d="M6028 2080c3,-5 6,-9 4,-17 -2,-8 -9,-20 -17,-31 -8,-11 -17,-21 -22,-28 -5,-7 -5,-10 -9,-16 -3,-5 -10,-13 -15,-19 -4,-6 -8,-10 -6,-11 2,-2 9,0 16,2 8,1 16,3 25,5 9,1 19,1 31,-1 12,-1 25,-4 36,-5 10,0 19,1 29,6 11,4 23,13 32,24 9,12 15,26 16,40 2,13 -1,25 -6,37 -5,12 -14,24 -22,33 -8,9 -15,15 -18,18 -4,3 -4,3 -4,3 0,0 0,0 0,0 0,0 0,0 0,0"/>
  <path class="fil1 str1" d="M6029 2006c9,11 18,22 25,31 7,9 12,15 15,24 3,9 5,19 7,28 1,8 4,15 8,22 3,8 8,17 13,25"/>
  <path class="fil1 str1" d="M6009 2007c10,10 19,19 26,26 6,8 9,13 10,19 2,7 1,14 -1,20 -3,6 -7,12 -10,18 -3,5 -5,11 -4,18 0,8 4,17 7,25 3,7 7,13 10,19"/>
  <path class="fil1 str1" d="M5971 2000c-21,17 -41,34 -55,45 -13,12 -19,19 -21,24 -1,5 2,9 8,14 7,5 17,11 26,16 8,6 15,11 22,15"/>
  <path class="fil1 str1" d="M6014 2067c4,0 8,1 11,2 2,1 3,3 1,6 -1,2 -5,5 -11,8 -6,3 -13,5 -19,6 -6,1 -10,1 -12,-1 -1,-2 -1,-5 0,-7 2,-2 5,-3 7,-4"/>
  <path class="fil1 str1" d="M5919 2093c2,8 4,16 5,23 1,7 0,13 0,20 0,6 1,13 1,20"/>
  <path class="fil1 str1" d="M5898 2631c-2,0 -4,-1 -12,-5 -9,-3 -23,-10 -37,-18 -14,-8 -27,-17 -33,-21 -7,-5 -7,-5 -5,-17 1,-13 4,-38 8,-64 4,-26 8,-53 13,-91 5,-39 12,-88 16,-120 4,-33 5,-47 8,-57 2,-10 6,-14 14,-22 7,-7 19,-18 29,-28 11,-9 21,-18 31,-26 9,-8 19,-15 28,-20 8,-4 16,-7 25,-8 9,-1 18,1 29,4 11,4 23,9 32,13 10,5 16,8 22,11"/>
  <path class="fil1 str1" d="M5917 2172c6,2 12,4 18,6 5,3 11,4 13,5 3,1 3,1 5,-1 2,-3 7,-8 13,-13 5,-5 13,-11 22,-14 8,-4 17,-6 22,-7 5,-1 4,-1 4,-1"/>
  <path class="fil1 str1" d="M6015 2155c-4,2 -10,5 -16,9 -6,4 -13,10 -17,14 -5,5 -8,9 -11,13 -2,4 -5,8 -6,12 -2,4 -3,8 -2,7 2,0 5,-5 10,-10 5,-5 12,-11 18,-16 6,-5 12,-10 18,-14 6,-4 12,-7 15,-9 3,-3 4,-4 3,-5 0,-2 -2,-3 -4,-3 -2,0 -4,1 -8,2z"/>
  <path class="fil1 str1" d="M5902 2234c-7,7 -13,14 -17,19 -4,5 -6,9 -6,11 0,2 2,2 6,1 4,-1 11,-2 17,-2 6,-1 11,-1 15,0 5,0 8,3 11,2 3,-1 5,-4 8,-7 3,-3 6,-6 9,-9 3,-3 7,-5 10,-7"/>
  <path class="fil1 str1" d="M5880 2284c2,6 3,13 4,19 1,5 1,10 2,15 0,4 1,9 3,13 2,4 5,7 10,10 5,4 12,9 18,9 5,0 9,-4 12,-9 4,-5 6,-11 9,-17 2,-5 5,-9 7,-14"/>
  <path class="fil1 str1" d="M5910 2425c3,16 6,32 8,45 2,14 4,25 3,35 0,9 -2,15 -6,21 -3,5 -10,8 -16,12"/>
  <path class="fil1 str1" d="M5957 2257c3,15 5,30 7,44 1,14 1,28 5,43 4,15 11,31 19,47"/>
  <path class="fil1 str1" d="M6024 2356c-12,11 -24,23 -33,38 -9,14 -14,32 -21,54 -6,22 -13,49 -19,68 -6,18 -11,29 -14,36 -3,6 -5,8 -3,14 2,5 6,14 13,21 7,6 17,10 26,13 10,3 20,5 30,5 10,1 19,0 29,-2"/>
  <path class="fil1 str1" d="M6028 2596c6,-17 11,-33 19,-50 8,-16 18,-33 26,-46 7,-13 12,-22 16,-37 4,-16 7,-38 11,-61 4,-23 10,-48 11,-65 2,-18 0,-28 -4,-46 -4,-17 -11,-41 -17,-62 -7,-22 -13,-39 -20,-57"/>
  <path class="fil1 str1" d="M5983 2481c0,11 0,23 0,32 0,9 0,15 2,19 2,4 6,6 8,7 3,0 4,-1 6,-2"/>
  <path class="fil1 str1" d="M6109 2326c-2,9 -7,30 -12,54 -4,23 -8,49 -10,67 -3,17 -4,26 -4,31 -1,4 -1,4 1,1 1,-3 3,-10 5,-20 3,-11 6,-25 8,-40 3,-15 6,-31 8,-44 2,-13 4,-23 5,-31 1,-8 2,-14 2,-19 0,-4 0,-8 -3,1z"/>
  <path class="fil1 str1" d="M5963 2537c5,6 9,11 16,17 7,5 16,9 22,10 7,2 12,0 16,-1"/>
  <path class="fil1 str1" d="M5929 2577c-5,11 -10,22 -15,34 -5,11 -9,24 -12,34 -3,10 -5,17 -6,24 -2,6 -4,11 -3,15 0,4 3,7 7,6 3,-1 7,-5 10,-10 4,-5 6,-10 10,-15 3,-5 7,-8 11,-10 3,-2 6,-2 11,2 4,4 10,13 18,23 8,11 19,23 30,33 10,10 20,18 26,21 6,3 8,2 7,-2 -1,-4 -4,-10 -9,-18 -5,-7 -13,-16 -17,-23 -5,-6 -6,-10 -6,-12 0,-3 3,-4 8,-3 6,1 14,4 22,5 8,2 16,2 19,1 2,-1 -1,-3 -5,-5 -3,-2 -8,-4 -10,-6 -2,-2 -3,-4 1,-5 3,-2 11,-3 16,-3 5,1 9,2 6,-1 -2,-3 -10,-9 -16,-16 -6,-6 -10,-12 -14,-18 -3,-5 -6,-11 -10,-17"/>
  <path class="fil1 str1" d="M5907 2172c-13,7 -26,14 -40,20 -13,6 -26,11 -39,17"/>
  <path class="fil1 str1" d="M5794 2258c7,-13 14,-26 20,-36 6,-11 9,-19 13,-29 4,-11 7,-23 11,-36 5,-13 9,-27 12,-34 2,-7 2,-7 0,-6 -3,1 -9,3 -16,5 -8,1 -17,1 -25,0 -7,-1 -12,-3 -15,-4 -2,-2 -2,-2 -8,10 -6,11 -18,34 -29,55 -10,21 -19,40 -24,54 -5,13 -8,20 -8,25 0,5 3,9 14,13 12,5 32,11 50,15 18,4 34,7 50,11"/>
  <path class="fil1 str1" d="M5756 2209c8,-6 16,-11 21,-16 6,-4 10,-7 14,-11 3,-3 5,-6 7,-9"/>
  <path class="fil1 str1" d="M5773 2151c5,3 10,6 16,8 5,2 10,2 15,2 4,0 8,0 12,-1"/>
  <path class="fil1 str1" d="M5806 2114c4,-8 9,-15 12,-22 4,-7 6,-14 8,-20 3,-7 5,-14 9,-21 4,-8 9,-15 14,-20 4,-5 6,-7 9,-9 2,-2 3,-4 5,-7 2,-3 5,-6 8,-8 3,-2 7,-3 10,-3 4,1 7,3 10,5 3,2 5,4 7,6 1,2 2,5 1,8 0,2 -2,5 -4,8"/>
  <path class="fil1 str1" d="M5881 2021c2,3 5,6 7,9 1,3 3,6 4,8 0,3 0,6 0,8 0,2 -1,3 -2,3 0,1 -1,1 -2,-1 -1,-2 -2,-6 -5,-10 -2,-4 -5,-8 -9,-11"/>
  <path class="fil1 str1" d="M5865 2031c4,5 9,11 12,15 3,5 5,8 5,11 0,2 -1,4 -3,3 -2,-1 -5,-4 -8,-6 -4,-3 -7,-5 -9,-6 -2,-1 -4,0 -6,1 -2,1 -4,3 -6,5 -1,1 -2,3 -3,7 0,4 0,10 0,14 1,4 2,7 4,8 2,2 5,3 7,3 3,0 5,0 9,-2 3,-2 8,-6 12,-9 4,-3 7,-4 10,-7 4,-3 9,-6 13,-9 4,-4 7,-7 10,-10"/>
  <path class="fil1 str1" d="M5850 2054c3,1 6,2 9,4 3,1 5,3 7,5"/>
  <path class="fil1 str1" d="M5862 2086c1,-3 2,-6 3,-9 0,-2 1,-5 2,-7"/>
  <path class="fil1 str1" d="M5874 2027c3,3 6,5 8,8 2,3 3,6 4,8 1,2 2,4 1,7 0,2 -3,4 -4,6 -1,1 -1,1 -1,1 0,0 0,0 0,0"/>
  <path class="fil1 str1" d="M5905 2025c1,2 2,4 2,6 1,2 1,5 1,7 0,2 0,3 0,4"/>
  <path class="fil4 str1" d="M5911 2011c2,-2 5,-5 8,-9 4,-3 7,-7 9,-10 3,-3 5,-5 6,-8 2,-2 3,-5 3,-6 0,-2 -1,-2 -3,-1 -2,0 -5,2 -8,5 -3,2 -6,6 -9,9 -3,4 -6,7 -7,9 -2,2 -4,4 -5,5 0,2 -1,2 0,2 1,0 3,-1 4,-2 1,-1 2,-2 2,-1 -1,1 -3,3 -4,5 -1,2 -1,3 0,3 1,1 2,1 4,-1z"/>
  <path class="fil1 str1" d="M5816 2608c-1,25 -2,50 -1,82 0,33 2,73 4,109 2,35 3,66 5,87 1,21 2,31 3,42"/>
  <path class="fil1 str1" d="M6024 2929c0,-29 0,-59 2,-85 1,-26 3,-49 6,-71 3,-22 7,-43 10,-60 3,-17 5,-29 8,-41"/>
  <path class="fil1 str1" d="M5683 2938c48,-4 96,-7 144,-10"/>
  <path class="fil1 str0" d="M0 2923c91,0 182,1 273,1"/>
  <line class="fil1 str0" x1="6038" y1="2922" x2="6435" y2= "2923" />
  <path class="fil5" d="M2364 760l0 -204 41 0 0 204 -41 0zm80 0l0 -204 152 0 0 35 -110 0 0 45 102 0 0 35 -102 0 0 55 114 0 0 34 -156 0zm237 0l0 -169 -61 0 0 -35 162 0 0 35 -60 0 0 169 -41 0zm128 0l0 -204 151 0 0 35 -110 0 0 45 102 0 0 35 -102 0 0 55 114 0 0 34 -155 0zm185 -54l0 -39 77 0 0 39 -77 0zm100 54l0 -204 87 0c21,0 37,2 47,6 10,3 18,10 24,19 6,10 9,20 9,32 0,16 -5,28 -14,38 -9,10 -22,17 -40,19 9,6 16,11 22,17 6,7 14,18 24,34l24 39 -49 0 -29 -44c-11,-16 -18,-26 -22,-30 -4,-4 -8,-7 -13,-9 -4,-1 -11,-2 -20,-2l-9 0 0 85 -41 0zm41 -117l31 0c19,0 32,-1 37,-3 5,-2 8,-4 11,-8 3,-5 4,-10 4,-16 0,-7 -1,-12 -5,-17 -4,-4 -9,-6 -16,-7 -3,-1 -13,-1 -30,-1l-32 0 0 52zm349 117l-45 0 -18 -46 -81 0 -17 46 -44 0 79 -204 44 0 82 204zm-76 -81l-28 -75 -28 75 56 0zm96 81l0 -204 41 0 0 204 -41 0zm127 0l0 -169 -61 0 0 -35 162 0 0 35 -60 0 0 169 -41 0z"/>
  <path class="fil5" d="M1545 1056l0 -139 42 0 25 95 25 -95 42 0 0 139 -26 0 0 -109 -28 109 -27 0 -27 -109 0 109 -26 0zm181 -70l-24 -4c3,-10 8,-17 14,-22 7,-4 17,-7 30,-7 12,0 20,2 26,5 6,2 10,6 12,10 3,5 4,12 4,24l0 31c0,9 0,15 1,19 1,5 2,9 5,14l-27 0c0,-2 -1,-4 -2,-8 -1,-1 -1,-3 -1,-3 -5,4 -10,8 -15,10 -5,2 -10,3 -16,3 -10,0 -19,-2 -25,-8 -5,-6 -8,-13 -8,-21 0,-6 1,-11 4,-15 2,-5 6,-8 11,-11 5,-2 12,-4 21,-6 12,-2 21,-4 26,-6l0 -3c0,-5 -1,-9 -4,-11 -2,-2 -7,-3 -14,-3 -5,0 -9,1 -11,2 -3,2 -5,6 -7,10zm36 22c-4,1 -9,2 -16,4 -8,2 -12,3 -15,5 -3,2 -5,5 -5,9 0,4 1,7 4,10 3,2 7,4 11,4 5,0 9,-2 13,-5 4,-3 6,-5 7,-9 0,-2 1,-6 1,-13l0 -5zm143 48l-26 0 0 -51c0,-11 -1,-18 -2,-21 -1,-3 -3,-6 -5,-8 -3,-1 -6,-2 -10,-2 -4,0 -9,1 -12,3 -4,3 -6,6 -8,10 -1,5 -2,12 -2,23l0 46 -26 0 0 -101 24 0 0 15c9,-11 20,-17 33,-17 6,0 12,1 17,4 4,2 8,4 11,8 2,3 4,7 5,11 1,4 1,10 1,18l0 62zm47 -70l-24 -4c3,-10 7,-17 14,-22 7,-4 16,-7 29,-7 12,0 21,2 27,5 6,2 10,6 12,10 2,5 4,12 4,24l-1 31c0,9 1,15 1,19 1,5 3,9 5,14l-26 0c-1,-2 -2,-4 -3,-8 0,-1 0,-3 -1,-3 -4,4 -9,8 -14,10 -5,2 -11,3 -17,3 -10,0 -18,-2 -24,-8 -6,-6 -9,-13 -9,-21 0,-6 2,-11 4,-15 3,-5 7,-8 12,-11 5,-2 12,-4 21,-6 12,-2 21,-4 25,-6l0 -3c0,-5 -1,-9 -3,-11 -3,-2 -8,-3 -15,-3 -4,0 -8,1 -11,2 -2,2 -4,6 -6,10zm35 22c-3,1 -8,2 -16,4 -7,2 -12,3 -14,5 -4,2 -5,5 -5,9 0,4 1,7 4,10 3,2 6,4 10,4 5,0 10,-2 14,-5 3,-3 5,-5 6,-9 1,-2 1,-6 1,-13l0 -5zm50 54l31 4c0,3 1,6 3,7 3,2 7,3 12,3 7,0 12,-1 16,-3 2,-1 4,-4 5,-7 1,-2 1,-6 1,-12l0 -15c-8,11 -18,17 -30,17 -13,0 -24,-6 -32,-17 -6,-9 -9,-20 -9,-34 0,-17 4,-29 12,-38 8,-9 18,-14 30,-14 13,0 23,6 31,17l0 -15 25 0 0 90c0,12 -1,21 -3,27 -2,6 -5,10 -9,14 -3,3 -8,6 -14,8 -6,2 -13,2 -22,2 -17,0 -29,-2 -36,-8 -7,-6 -11,-14 -11,-23 0,0 0,-2 0,-3zm24 -58c0,10 2,18 6,23 4,5 9,7 15,7 7,0 12,-2 17,-7 4,-5 6,-13 6,-23 0,-10 -2,-18 -6,-23 -4,-5 -10,-7 -16,-7 -6,0 -12,2 -16,7 -4,5 -6,13 -6,23zm155 20l26 5c-3,9 -8,17 -16,22 -7,5 -16,7 -27,7 -18,0 -31,-5 -39,-17 -7,-9 -10,-20 -10,-34 0,-17 4,-30 13,-39 9,-10 20,-15 33,-15 15,0 27,5 35,15 9,10 13,25 13,45l-67 0c1,8 3,14 7,19 4,4 9,6 15,6 4,0 8,-1 10,-3 3,-2 5,-6 7,-11zm1 -27c0,-7 -2,-13 -6,-17 -3,-4 -8,-6 -13,-6 -6,0 -11,2 -15,6 -3,4 -5,10 -5,17l39 0zm587 59l0 -137 28 0 0 113 69 0 0 24 -97 0zm175 -32l26 5c-3,9 -8,17 -16,22 -7,5 -16,7 -27,7 -18,0 -31,-5 -39,-17 -7,-9 -10,-20 -10,-34 0,-17 4,-30 13,-39 9,-10 20,-15 33,-15 15,0 27,5 35,15 9,10 13,25 13,45l-67 0c1,8 3,14 7,19 4,4 9,6 15,6 4,0 8,-1 10,-3 3,-2 5,-6 7,-11zm1 -27c0,-7 -2,-13 -6,-17 -3,-4 -8,-6 -13,-6 -6,0 -11,2 -15,6 -3,4 -5,10 -5,17l39 0zm68 -11l-24 -4c3,-10 7,-17 14,-22 7,-4 16,-7 30,-7 11,0 20,2 26,5 6,2 10,6 12,10 3,5 4,12 4,24l-1 31c0,9 1,15 2,19 0,5 2,9 4,14l-26 0c-1,-2 -2,-4 -3,-8 0,-1 0,-3 0,-3 -5,4 -10,8 -15,10 -5,2 -11,3 -16,3 -11,0 -19,-2 -25,-8 -6,-6 -9,-13 -9,-21 0,-6 2,-11 4,-15 3,-5 7,-8 12,-11 5,-2 12,-4 21,-6 12,-2 21,-4 26,-6l0 -3c0,-5 -2,-9 -4,-11 -3,-2 -7,-3 -14,-3 -5,0 -9,1 -12,2 -2,2 -4,6 -6,10zm36 22c-4,1 -9,2 -17,4 -7,2 -12,3 -14,5 -3,2 -5,5 -5,9 0,4 1,7 4,10 3,2 6,4 11,4 4,0 9,-2 13,-5 3,-3 6,-5 7,-9 0,-2 1,-6 1,-13l0 -5zm77 48l-26 0 0 -101 24 0 0 15c4,-7 8,-11 12,-14 3,-2 7,-3 11,-3 6,0 12,2 18,5l-9 23c-4,-2 -8,-4 -12,-4 -4,0 -7,1 -9,3 -3,2 -5,6 -7,11 -1,6 -2,17 -2,34l0 31zm141 0l-26 0 0 -51c0,-11 -1,-18 -2,-21 -1,-3 -3,-6 -5,-8 -3,-1 -6,-2 -10,-2 -4,0 -8,1 -12,3 -4,3 -6,6 -8,10 -1,5 -2,12 -2,23l0 46 -26 0 0 -101 24 0 0 15c9,-11 20,-17 34,-17 5,0 11,1 16,4 5,2 8,4 11,8 2,3 4,7 5,11 1,4 1,10 1,18l0 62zm565 0l0 -139 102 0 0 24 -74 0 0 31 69 0 0 23 -69 0 0 37 77 0 0 24 -105 0zm116 0l36 -52 -35 -49 33 0 17 28 19 -28 31 0 -34 48 37 53 -32 0 -21 -31 -20 31 -31 0zm119 -101l25 0 0 15c3,-5 8,-9 13,-12 6,-3 12,-5 18,-5 12,0 22,5 30,14 8,9 12,22 12,38 0,17 -4,30 -12,39 -8,10 -18,14 -30,14 -5,0 -11,-1 -15,-3 -5,-2 -9,-6 -14,-11l0 50 -27 0 0 -139zm26 49c0,11 3,20 7,25 5,6 10,8 16,8 7,0 12,-2 16,-7 4,-5 6,-13 6,-25 0,-10 -2,-18 -6,-23 -5,-5 -10,-8 -16,-8 -7,0 -12,3 -16,8 -5,5 -7,12 -7,22zm151 20l27 5c-4,9 -9,17 -16,22 -8,5 -17,7 -28,7 -17,0 -30,-5 -39,-17 -6,-9 -10,-20 -10,-34 0,-17 5,-30 13,-39 9,-10 20,-15 33,-15 15,0 27,5 36,15 8,10 12,25 12,45l-66 0c0,8 2,14 6,19 4,4 9,6 15,6 4,0 8,-1 11,-3 3,-2 5,-6 6,-11zm2 -27c0,-7 -2,-13 -6,-17 -4,-4 -9,-6 -14,-6 -6,0 -11,2 -14,6 -4,4 -6,10 -6,17l40 0zm73 59l-26 0 0 -101 24 0 0 15c4,-7 8,-11 12,-14 3,-2 7,-3 11,-3 6,0 12,2 18,5l-9 23c-4,-2 -8,-4 -12,-4 -4,0 -7,1 -10,3 -2,2 -4,6 -6,11 -1,6 -2,17 -2,34l0 31zm50 -114l0 -25 26 0 0 25 -26 0zm0 114l0 -101 26 0 0 101 -26 0zm112 -32l26 5c-3,9 -9,17 -16,22 -7,5 -16,7 -27,7 -18,0 -31,-5 -39,-17 -7,-9 -10,-20 -10,-34 0,-17 4,-30 13,-39 9,-10 20,-15 33,-15 15,0 27,5 35,15 9,10 13,25 13,45l-67 0c0,8 3,14 7,19 4,4 9,6 15,6 4,0 7,-1 10,-3 3,-2 5,-6 7,-11zm1 -27c0,-7 -2,-13 -6,-17 -3,-4 -8,-6 -13,-6 -6,0 -11,2 -15,6 -4,4 -5,10 -5,17l39 0zm139 59l-26 0 0 -51c0,-11 -1,-18 -2,-21 -1,-3 -3,-6 -5,-8 -3,-1 -6,-2 -10,-2 -4,0 -8,1 -12,3 -4,3 -6,6 -8,10 -1,5 -2,12 -2,23l0 46 -26 0 0 -101 24 0 0 15c9,-11 20,-17 34,-17 5,0 11,1 16,4 5,2 8,4 11,8 2,3 4,7 5,11 1,4 1,10 1,18l0 62zm115 -71l-26 5c-1,-5 -3,-9 -6,-12 -3,-2 -8,-4 -12,-4 -7,0 -12,3 -16,7 -4,5 -6,12 -6,23 0,12 2,20 6,25 4,5 9,8 16,8 5,0 9,-2 12,-5 3,-2 6,-7 7,-14l26 4c-3,12 -8,21 -15,27 -8,6 -18,9 -31,9 -15,0 -27,-4 -35,-14 -9,-9 -13,-22 -13,-38 0,-17 4,-30 13,-39 8,-9 20,-14 35,-14 12,0 22,3 29,8 7,5 13,13 16,24zm78 39l26 5c-3,9 -8,17 -16,22 -7,5 -16,7 -27,7 -18,0 -31,-5 -39,-17 -7,-9 -10,-20 -10,-34 0,-17 4,-30 13,-39 9,-10 20,-15 33,-15 15,0 27,5 35,15 9,10 13,25 13,45l-67 0c1,8 3,14 7,19 4,4 9,6 15,6 4,0 8,-1 10,-3 3,-2 5,-6 7,-11zm1 -27c0,-7 -2,-13 -5,-17 -4,-4 -9,-6 -14,-6 -6,0 -11,2 -15,6 -3,4 -5,10 -5,17l39 0z"/>
  <circle class="fil4" cx="1476" cy="992" r="19"/>
  <circle class="fil4" cx="2736" cy="996" r="19"/>
  <circle class="fil4" cx="3800" cy="996" r="19"/>
 </g>
</svg>
